<svg width="71" height="71" viewBox="0 0 71 71" fill="none" xmlns="http://www.w3.org/2000/svg">
<path d="M35.4994 5.91675C31.6144 5.91675 27.7675 6.68194 24.1783 8.16865C20.5891 9.65535 17.3278 11.8344 14.5808 14.5815C9.03282 20.1295 5.91602 27.6541 5.91602 35.5001C5.91602 48.5759 14.4064 59.6697 26.151 63.6042C27.6302 63.8409 28.1035 62.9238 28.1035 62.1251V57.1255C19.9089 58.9005 18.1635 53.1613 18.1635 53.1613C16.8027 49.7297 14.8798 48.8126 14.8798 48.8126C12.1877 46.9784 15.0868 47.0376 15.0868 47.0376C18.0452 47.2447 19.6131 50.0847 19.6131 50.0847C22.1868 54.5813 26.5356 53.2501 28.2218 52.5401C28.4881 50.6172 29.2573 49.3155 30.0856 48.5759C23.5181 47.8363 16.6252 45.2922 16.6252 34.0209C16.6252 30.7372 17.7493 28.1042 19.6723 26.0038C19.3764 25.2642 18.341 22.1876 19.9681 18.1938C19.9681 18.1938 22.4531 17.3951 28.1035 21.2113C30.4406 20.5605 32.9848 20.2351 35.4994 20.2351C38.0139 20.2351 40.5581 20.5605 42.8952 21.2113C48.5456 17.3951 51.0306 18.1938 51.0306 18.1938C52.6577 22.1876 51.6223 25.2642 51.3264 26.0038C53.2494 28.1042 54.3735 30.7372 54.3735 34.0209C54.3735 45.3217 47.451 47.8067 40.8539 48.5463C41.9189 49.4634 42.8952 51.268 42.8952 54.0192V62.1251C42.8952 62.9238 43.3685 63.8705 44.8773 63.6042C56.6219 59.6401 65.0827 48.5759 65.0827 35.5001C65.0827 31.6151 64.3175 27.7682 62.8308 24.179C61.3441 20.5898 59.165 17.3286 56.4179 14.5815C53.6709 11.8344 50.4096 9.65535 46.8204 8.16865C43.2312 6.68194 39.3843 5.91675 35.4994 5.91675Z" fill="black"/>
</svg>
